<svg width="53" height="32" viewBox="0 0 53 32" fill="none" xmlns="http://www.w3.org/2000/svg">
<rect x="1.25" y="0.5" width="51" height="31" rx="7.5" stroke="#C5D0E6"/>
<rect x="17.9309" y="9.91409" width="17.6384" height="12.1737" rx="0.425753" fill="#006FCF" stroke="#F3F3F3" stroke-width="0.121644"/>
<path fill-rule="evenodd" clip-rule="evenodd" d="M21.5027 18.7331V16.2019H24.3577L24.664 16.5767L24.9804 16.2019H35.3432V18.5585C35.3432 18.5585 35.0722 18.7305 34.7588 18.7331H29.0207L28.6753 18.3341V18.7331H27.5437V18.052C27.5437 18.052 27.3891 18.147 27.0549 18.147H26.6697V18.7331H24.9562L24.6503 18.3502L24.3398 18.7331H21.5027ZM18.1763 14.2945L18.8186 12.8855H19.9295L20.294 13.6747V12.8855H21.6749L21.892 13.4559L22.1023 12.8855H28.3012V13.1723C28.3012 13.1723 28.6271 12.8855 29.1626 12.8855L31.1739 12.8921L31.5322 13.671V12.8855H32.6878L33.0059 13.3329V12.8855H34.1721V15.4167H33.0059L32.7011 14.9678V15.4167H31.0032L30.8325 15.0177H30.376L30.208 15.4167H29.0566C28.5958 15.4167 28.3012 15.1357 28.3012 15.1357V15.4167H26.5651L26.2206 15.0177V15.4167H19.7649L19.5943 15.0177H19.1393L18.9699 15.4167H18.1763V14.2945ZM18.1796 15.0942L19.046 13.199H19.7028L20.5684 15.0942H19.9919L19.8329 14.7147H18.9035L18.7437 15.0942H18.1796ZM19.6499 14.3036L19.3666 13.6404L19.0825 14.3036H19.6499ZM20.628 15.0933V13.198L21.4296 13.2008L21.8958 14.4227L22.3508 13.198H23.146V15.0933H22.6424V13.6968L22.1086 15.0933H21.6669L21.1316 13.6968V15.0933H20.628ZM23.4906 15.0933V13.198H25.1339V13.6219H23.9995V13.9461H25.1074V14.3451H23.9995V14.6818H25.1339V15.0933H23.4906ZM25.4254 15.0942V13.199H26.5461C26.9174 13.199 27.2501 13.415 27.2501 13.8138C27.2501 14.1548 26.9696 14.3744 26.6976 14.396L27.3603 15.0942H26.7448L26.141 14.4209H25.929V15.0942H25.4254ZM26.5047 13.6228H25.929V14.0218H26.5121C26.6131 14.0218 26.7432 13.9482 26.7432 13.8223C26.7432 13.7244 26.6428 13.6228 26.5047 13.6228ZM27.9699 15.0933H27.4557V13.198H27.9699V15.0933ZM29.1891 15.0933H29.0781C28.5411 15.0933 28.2151 14.6952 28.2151 14.1534C28.2151 13.5983 28.5375 13.198 29.2156 13.198H29.7722V13.6469H29.1953C28.92 13.6469 28.7253 13.849 28.7253 14.1581C28.7253 14.5251 28.9479 14.6793 29.2686 14.6793H29.4012L29.1891 15.0933ZM29.4186 15.0942L30.285 13.199H30.9418L31.8074 15.0942H31.2309L31.0719 14.7147H30.1425L29.9827 15.0942H29.4186ZM30.8889 14.3036L30.6056 13.6404L30.3215 14.3036H30.8889ZM31.8662 15.0933V13.198H32.5064L33.324 14.3888V13.198H33.8276V15.0933H33.208L32.3698 13.8713V15.0933H31.8662ZM21.8472 18.4097V16.5144H23.4906V16.9383H22.3561V17.2625H23.464V17.6615H22.3561V17.9982H23.4906V18.4097H21.8472ZM29.8995 18.4097V16.5144H31.5428V16.9383H30.4084V17.2625H31.511V17.6615H30.4084V17.9982H31.5428V18.4097H29.8995ZM23.5543 18.4097L24.3544 17.4737L23.5353 16.5144H24.1697L24.6576 17.1075L25.1471 16.5144H25.7567L24.9483 17.462L25.7499 18.4097H25.1155L24.6418 17.826L24.1797 18.4097H23.5543ZM25.8098 18.4106V16.5154H26.9222C27.3786 16.5154 27.6453 16.7922 27.6453 17.1528C27.6453 17.5882 27.3053 17.8121 26.8567 17.8121H26.3266V18.4106H25.8098ZM26.8849 16.9451H26.3266V17.3815H26.8832C27.0303 17.3815 27.1334 17.2898 27.1334 17.1633C27.1334 17.0286 27.0298 16.9451 26.8849 16.9451ZM27.8639 18.4106V16.5154H28.9846C29.3559 16.5154 29.6887 16.7314 29.6887 17.1302C29.6887 17.4712 29.4081 17.6908 29.1362 17.7124L29.7988 18.4106H29.1834L28.5796 17.7373H28.3675V18.4106H27.8639ZM28.9432 16.9392H28.3676V17.3382H28.9507C29.0516 17.3382 29.1818 17.2646 29.1818 17.1387C29.1818 17.0408 29.0813 16.9392 28.9432 16.9392ZM31.776 18.4097V17.9982H32.7839C32.933 17.9982 32.9976 17.9224 32.9976 17.8392C32.9976 17.7595 32.9332 17.679 32.7839 17.679H32.3284C31.9326 17.679 31.7121 17.4521 31.7121 17.1113C31.7121 16.8075 31.914 16.5144 32.5023 16.5144H33.4829L33.2709 16.9408H32.4227C32.2606 16.9408 32.2107 17.0209 32.2107 17.0973C32.2107 17.1759 32.2724 17.2625 32.3962 17.2625H32.8733C33.3146 17.2625 33.5061 17.4981 33.5061 17.8065C33.5061 18.1381 33.2927 18.4097 32.8493 18.4097H31.776ZM33.5506 18.4097V17.9982H34.5584C34.7076 17.9982 34.7721 17.9224 34.7721 17.8392C34.7721 17.7595 34.7078 17.679 34.5584 17.679H34.103C33.7071 17.679 33.4866 17.4521 33.4866 17.1113C33.4866 16.8075 33.6885 16.5144 34.2768 16.5144H35.2575L35.0455 16.9408H34.1973C34.0352 16.9408 33.9853 17.0209 33.9853 17.0973C33.9853 17.1759 34.0469 17.2625 34.1708 17.2625H34.6479C35.0892 17.2625 35.2807 17.4981 35.2807 17.8065C35.2807 18.1381 35.0673 18.4097 34.6239 18.4097H33.5506Z" fill="white"/>
</svg>
