<svg width="53" height="32" viewBox="0 0 53 32" fill="none" xmlns="http://www.w3.org/2000/svg">
<rect x="1.25" y="0.5" width="51" height="31" rx="7.5" stroke="#C5D0E6"/>
<path fill-rule="evenodd" clip-rule="evenodd" d="M36.845 14.0287C37.7096 14.0287 38.1852 14.4287 38.1852 15.1842C38.2284 15.762 37.8393 16.2508 37.3205 16.3397L38.4878 17.9841H37.5799L36.5856 16.3842H36.4991V17.9841H35.7642V14.0287H36.845ZM36.4991 15.8498H36.7153C37.1908 15.8498 37.407 15.6276 37.407 15.2276C37.407 14.8721 37.1908 14.6498 36.7153 14.6498H36.4991V15.8498ZM33.2135 17.9811H35.2886V17.3145H33.9484V16.2479H35.2454V15.5813H33.9484V14.6924H35.2886V14.0258H33.2135V17.9811ZM31.0518 16.6923L30.0575 14.0258H29.2793L30.8789 18.07H31.268L32.8675 14.0258H32.0894L31.0518 16.6923ZM22.2757 16.0257C22.2757 17.1367 23.1404 18.07 24.2212 18.07C24.567 18.07 24.8697 17.9811 25.1723 17.8478V16.959C24.9561 17.2256 24.6535 17.4034 24.3076 17.4034C23.6159 17.4034 23.0539 16.8701 23.0539 16.159V16.0701C23.0107 15.3591 23.5727 14.7369 24.2644 14.6924C24.6103 14.6924 24.9561 14.8702 25.1723 15.1369V14.248C24.9129 14.0703 24.567 14.0258 24.2644 14.0258C23.1404 13.9369 22.2757 14.8702 22.2757 16.0257ZM20.9355 15.5367C20.5032 15.359 20.3735 15.2701 20.3735 15.0479C20.4167 14.7812 20.6329 14.559 20.8923 14.6035C21.1084 14.6035 21.3246 14.7368 21.4975 14.9145L21.8866 14.3812C21.584 14.1146 21.1949 13.9368 20.8058 13.9368C20.2006 13.8924 19.6818 14.3812 19.6385 15.0034V15.0479C19.6385 15.5812 19.8547 15.8923 20.5464 16.1145C20.7193 16.1589 20.8923 16.2478 21.0652 16.3367C21.1949 16.4256 21.2814 16.5589 21.2814 16.7367C21.2814 17.0477 21.022 17.3144 20.7626 17.3144H20.7193C20.3735 17.3144 20.0709 17.0922 19.9412 16.7811L19.4656 17.27C19.725 17.7588 20.2438 18.0255 20.7626 18.0255C21.4543 18.0699 22.0163 17.5366 22.0595 16.8255V16.6922C22.0163 16.1589 21.8002 15.8923 20.9355 15.5367ZM18.428 17.9811H19.163V14.0258H18.428V17.9811ZM15.0127 14.0287H16.0935H16.3097C17.3472 14.0732 18.1686 14.962 18.1254 16.0286C18.1254 16.6064 17.866 17.1397 17.4337 17.5396C17.0446 17.8507 16.5691 18.0285 16.0935 17.9841H15.0127V14.0287ZM15.9638 17.3175C16.3097 17.362 16.6988 17.2286 16.9582 17.0064C17.2175 16.7398 17.3472 16.3843 17.3472 15.9843C17.3472 15.6287 17.2175 15.2732 16.9582 15.0066C16.6988 14.7843 16.3097 14.651 15.9638 14.6955H15.7477V17.3175H15.9638Z" fill="#1D2427"/>
<path fill-rule="evenodd" clip-rule="evenodd" d="M27.3774 13.9311C26.2965 13.9311 25.3887 14.8199 25.3887 15.9754C25.3887 17.0865 26.2533 18.0197 27.3774 18.0642C28.5014 18.1086 29.366 17.1753 29.4093 16.0199C29.366 14.8644 28.5014 13.9311 27.3774 13.9311V13.9311Z" fill="#FD6020"/>
</svg>
