<svg width="49" height="48" viewBox="0 0 49 48" fill="none" xmlns="http://www.w3.org/2000/svg">
<rect x="0.666504" width="48" height="48" rx="8" fill="#F0F7FF"/>
<path d="M26.3964 15.5099L28.1564 19.0299C28.3964 19.5199 29.0364 19.9899 29.5764 20.0799L32.7664 20.6099C34.8064 20.9499 35.2864 22.4299 33.8164 23.8899L31.3364 26.3699C30.9164 26.7899 30.6864 27.5999 30.8164 28.1799L31.5264 31.2499C32.0864 33.6799 30.7964 34.6199 28.6464 33.3499L25.6564 31.5799C25.1164 31.2599 24.2264 31.2599 23.6764 31.5799L20.6864 33.3499C18.5464 34.6199 17.2464 33.6699 17.8064 31.2499L18.5164 28.1799C18.6464 27.5999 18.4164 26.7899 17.9964 26.3699L15.5164 23.8899C14.0564 22.4299 14.5264 20.9499 16.5664 20.6099L19.7564 20.0799C20.2864 19.9899 20.9264 19.5199 21.1664 19.0299L22.9264 15.5099C23.8864 13.5999 25.4464 13.5999 26.3964 15.5099Z" fill="#009C77"/>
</svg>
