<svg version="1" xmlns="http://www.w3.org/2000/svg" width="200" height="62" viewBox="0 0 1300 1300" preserveAspectRatio="xMidYMid meet">
<g transform="matrix(0.1,0,0,-0.1,0,300)" fill="#000000" stroke="none">
<path d="M 9339.2 1151.1 c -116 -26 -187 -90 -230 -204 c -27 -71 -40 -139 -235 -1268 c -86 -495 -313 -1791 -505 -2880 c -441 -2499 -570 -3248 -560 -3259 c 5 -4 343 -6 762 -3 c 637 4 764 7 822 21 c 168 38 218 109 293 418 c 21 87 41 158 44 158 c 4 0 33 -33 65 -72 c 129 -161 316 -324 478 -417 c 147 -84 324 -144 536 -181 c 158 -28 486 -38 640 -21 c 684 79 1301 455 1732 1056 c 314 438 523 978 603 1560 c 22 162 30 503 16 665 c -50 551 -250 1047 -579 1440 c -407 486 -1010 736 -1664 690 c -266 -19 -372 -48 -796 -217 c -145 -58 -265 -103 -267 -101 c -3 2 96 580 219 1283 c 123 704 226 1291 228 1305 l 3 25 l -675 0 c -371 0 -720 4 -775 8 c -69 4 -117 3 -155 -6 z m 1897 -3958 c 379 -52 668 -324 748 -704 c 22 -105 23 -319 1 -441 c -87 -500 -430 -847 -906 -919 c -258 -40 -493 7 -687 135 c -187 123 -318 310 -375 537 c -32 124 -32 385 -1 519 c 135 583 650 951 1220 873 z"/>
<path d="M -4724.8 1133.1 c -92 -31 -150 -95 -184 -205 c -12 -38 -58 -283 -102 -544 c -221 -1306 -695 -3970 -766 -4299 c -42 -193 -111 -441 -149 -532 c -78 -184 -223 -310 -406 -354 c -85 -20 -276 -20 -353 0 c -104 27 -166 64 -251 150 c -102 102 -146 185 -224 420 c -33 97 -62 179 -64 182 c -6 5 -1778 -516 -1788 -526 c -8 -7 36 -182 76 -301 c 165 -499 479 -963 826 -1220 c 427 -316 1059 -498 1664 -477 c 678 24 1274 266 1696 690 c 261 263 451 586 624 1063 c 91 251 113 347 256 1104 c 209 1112 858 4784 859 4860 c 0 3 -375 5 -833 5 c -744 0 -837 -2 -881 -16 z"/>
<path d="M 15130.2 1138.1 c -57 -15 -112 -72 -134 -140 c -9 -27 -62 -310 -117 -629 c -102 -589 -183 -1042 -560 -3150 c -299 -1670 -304 -1701 -349 -1995 c -55 -364 -73 -532 -66 -610 c 32 -320 191 -550 479 -690 c 151 -74 270 -103 431 -104 c 149 -1 237 19 359 80 c 93 47 147 88 226 171 c 115 119 183 230 243 393 c 54 145 58 165 197 976 c 72 417 261 1513 421 2434 c 159 921 314 1817 344 1990 c 46 264 199 1201 208 1265 c 2 19 -10 19 -817 20 c -586 0 -833 -3 -865 -11 z"/>
<path d="M -767.8 -1135.9 c -902 -87 -1695 -560 -2188 -1305 c -248 -375 -411 -820 -467 -1275 c -17 -138 -17 -536 0 -670 c 95 -754 469 -1389 1046 -1774 c 480 -321 1238 -476 1906 -390 c 1195 153 2112 935 2449 2087 c 95 325 125 557 118 902 c -7 326 -38 511 -139 814 c -167 502 -488 930 -903 1204 c -283 186 -716 332 -1165 392 c -145 20 -521 28 -657 15 z m 375 -1676 c 151 -30 301 -109 419 -218 c 128 -119 216 -268 264 -446 c 33 -121 33 -377 0 -530 c -50 -235 -143 -412 -301 -571 c -159 -161 -314 -246 -530 -291 c -134 -29 -325 -28 -442 0 c -318 78 -559 317 -648 647 c -31 113 -38 342 -16 480 c 81 494 425 857 885 935 c 83 14 288 11 369 -6 z"/>
<path d="M 4979.2 -1136.9 c -801 -83 -1486 -492 -2015 -1203 c -309 -415 -496 -848 -566 -1311 c -28 -183 -31 -491 -5 -675 c 56 -409 222 -865 433 -1190 c 240 -368 560 -646 935 -811 c 487 -214 1113 -294 1678 -213 c 346 49 611 130 906 274 c 282 138 512 307 741 543 c 391 405 678 950 797 1513 c 149 710 16 1458 -360 2021 c -104 156 -183 249 -325 389 c -292 284 -630 467 -1054 569 c -309 75 -566 105 -870 104 c -115 -1 -248 -6 -295 -10 z m 515 -1678 c 321 -84 557 -341 632 -691 c 22 -103 24 -356 4 -470 c -62 -355 -268 -647 -559 -794 c -137 -69 -343 -116 -513 -116 c -433 0 -762 271 -855 705 c -49 226 -15 530 84 753 c 148 337 426 560 779 627 c 109 20 321 14 428 -14 z"/>
<path d="M 20458.2 -1241.9 c -67 -17 -103 -39 -148 -90 c -53 -61 -83 -153 -116 -366 c -130 -821 -392 -2280 -456 -2531 c -36 -142 -130 -335 -235 -482 c -120 -170 -260 -251 -451 -262 c -252 -15 -447 105 -499 307 c -36 139 -24 208 221 1380 c 166 794 405 1992 405 2034 c 0 15 -63 16 -682 16 c -376 0 -755 -3 -843 -7 l -159 -6 l -41 -38 c -80 -74 -87 -96 -264 -804 c -104 -417 -151 -641 -245 -1160 c -169 -932 -225 -1327 -257 -1792 c -22 -326 29 -567 172 -804 c 70 -117 118 -176 229 -282 c 207 -200 456 -327 765 -393 c 478 -101 944 -28 1360 211 c 55 32 124 75 154 96 c 30 22 56 38 57 36 c 6 -5 -88 -346 -130 -472 c -80 -240 -172 -403 -292 -515 c -152 -143 -362 -210 -565 -180 c -234 34 -441 173 -562 378 c -55 93 -124 166 -176 184 c -28 10 -188 13 -718 13 l -681 0 l -44 -30 c -61 -43 -108 -116 -108 -169 c 0 -73 40 -313 74 -449 c 150 -593 498 -1021 1051 -1292 c 162 -79 284 -127 439 -171 c 791 -228 1653 -68 2320 430 c 470 351 771 789 974 1416 c 53 163 55 174 161 731 c 243 1282 405 2182 790 4384 c 65 374 118 681 117 681 c 0 1 -355 4 -787 6 c -560 3 -799 0 -830 -8 z"/>
</g>
</svg>
