<svg width="53" height="32" viewBox="0 0 53 32" fill="none" xmlns="http://www.w3.org/2000/svg">
<rect x="1.25" y="0.5" width="51" height="31" rx="7.5" stroke="#C5D0E6"/>
<path fill-rule="evenodd" clip-rule="evenodd" d="M20.8808 19.7977H18.849L17.3254 13.8142C17.2531 13.539 17.0995 13.2957 16.8736 13.181C16.31 12.8928 15.6888 12.6634 15.0112 12.5477V12.3174H18.2843C18.736 12.3174 19.0748 12.6634 19.1313 13.0653L19.9218 17.3814L21.9527 12.3174H23.928L20.8808 19.7977ZM25.0573 19.7977H23.1385L24.7185 12.3174H26.6374L25.0573 19.7977ZM29.12 14.3903C29.1764 13.9874 29.5152 13.757 29.9105 13.757C30.5316 13.6992 31.2083 13.8149 31.7729 14.1021L32.1117 12.4915C31.5471 12.2612 30.9259 12.1455 30.3622 12.1455C28.4998 12.1455 27.1446 13.1816 27.1446 14.6197C27.1446 15.7136 28.1046 16.288 28.7822 16.6341C29.5152 16.9791 29.7976 17.2095 29.7411 17.5546C29.7411 18.0721 29.1764 18.3025 28.6128 18.3025C27.9352 18.3025 27.2576 18.13 26.6374 17.8418L26.2986 19.4533C26.9762 19.7405 27.7093 19.8562 28.3869 19.8562C30.4752 19.913 31.7729 18.8779 31.7729 17.3242C31.7729 15.3676 29.12 15.2529 29.12 14.3903ZM38.4885 19.7977L36.9649 12.3174H35.3283C34.9895 12.3174 34.6507 12.5477 34.5378 12.8928L31.7164 19.7977H33.6918L34.086 18.7047H36.5131L36.739 19.7977H38.4885ZM35.6107 14.333L36.1744 17.1522H34.5943L35.6107 14.333Z" fill="#172B85"/>
</svg>
