<svg width="23" height="22" viewBox="0 0 23 22" fill="none" xmlns="http://www.w3.org/2000/svg">
<path d="M10.8372 21.3373C8.09558 21.3373 5.46628 20.2482 3.52769 18.3096C1.58909 16.371 0.5 13.7417 0.5 11.0001C0.5 8.25855 1.58909 5.62925 3.52769 3.69065C5.46628 1.75206 8.09558 0.662965 10.8372 0.662965C12.7739 0.648703 14.6745 1.18726 16.3159 2.21542L15.3197 3.81298C13.9768 2.97171 12.4218 2.53096 10.8372 2.54245C9.1644 2.54245 7.52919 3.03849 6.13833 3.96783C4.74747 4.89717 3.66343 6.21808 3.02329 7.76352C2.38315 9.30896 2.21566 11.0095 2.542 12.6501C2.86834 14.2908 3.67386 15.7978 4.85668 16.9806C6.03951 18.1635 7.54653 18.969 9.18716 19.2953C10.8278 19.6217 12.5283 19.4542 14.0738 18.814C15.6192 18.1739 16.9401 17.0898 17.8695 15.699C18.7988 14.3081 19.2949 12.6729 19.2949 11.0001C19.2994 10.254 19.2143 9.51001 19.0411 8.78422L20.8642 8.32939C21.0746 9.20394 21.1787 10.1007 21.1743 11.0001C21.1711 13.7407 20.081 16.3682 18.1431 18.306C16.2052 20.2439 13.5778 21.3341 10.8372 21.3373Z" fill="#009C77"/>
<path d="M10.8339 13.8277C10.5846 13.8277 10.3457 13.7286 10.1695 13.5524L5.74609 9.12901L7.07489 7.80022L10.8339 11.5592L21.171 1.22202L22.4998 2.55081L11.4983 13.5524C11.3221 13.7286 11.0831 13.8277 10.8339 13.8277Z" fill="#009C77"/>
</svg>
