<svg width="86" height="86" viewBox="0 0 86 86" fill="none" xmlns="http://www.w3.org/2000/svg">
<g clip-path="url(#clip0_23_4522)">
<path d="M35.6113 38.2969C43.2182 38.2969 49.3848 32.1303 49.3848 24.5234C49.3848 16.9166 43.2182 10.75 35.6113 10.75C28.0045 10.75 21.8379 16.9166 21.8379 24.5234C21.8379 32.1303 28.0045 38.2969 35.6113 38.2969Z" fill="#96E6A1"/>
<path d="M39.9775 22.7598V23.8516C39.9775 26.2634 38.0222 28.2188 35.6104 28.2188C33.1985 28.2188 31.2432 26.2634 31.2432 23.8516V22.7598C31.2432 20.3479 33.1985 18.3926 35.6104 18.3926C38.0222 18.3926 39.9775 20.3479 39.9775 22.7598Z" fill="#FFCDAC"/>
<path d="M35.6105 28.2188C31.3474 28.2188 27.7052 30.8671 26.2324 34.6071C28.6915 36.8952 31.9865 38.2969 35.6105 38.2969C39.2344 38.2969 42.5294 36.8952 44.9885 34.6071C43.5157 30.8671 39.8735 28.2188 35.6105 28.2188Z" fill="#A5DDFF"/>
<path d="M73.3309 26.9741L74.2907 25.3117C75.775 22.741 79.0622 21.8601 81.6331 23.3443C84.2039 24.8286 85.0847 28.1158 83.6005 30.6867L62.4632 67.2977L53.1533 61.9227L62.271 46.1303L73.3309 26.9741Z" fill="#009C77"/>
<path d="M81.6329 23.3443C79.0621 21.8599 75.7748 22.7408 74.2904 25.3117L71.7949 29.634L81.1048 35.009L83.6003 30.6867C85.0844 28.1159 84.2036 24.8286 81.6329 23.3443Z" fill="#96E6A1"/>
<path d="M62.4627 67.2977L51.665 75.25L53.1529 61.9227L62.4627 67.2977Z" fill="#9AD8FF"/>
<path d="M69.54 66.9067C68.6125 66.9067 67.8604 67.6587 67.8604 68.5863V80.9609C67.8604 81.8871 67.1068 82.6406 66.1807 82.6406H5.04004C4.11386 82.6406 3.36035 81.8871 3.36035 80.9609V5.03906C3.36035 4.11288 4.11386 3.35938 5.04004 3.35938H66.1807C67.1068 3.35938 67.8604 4.11288 67.8604 5.03906V23.3057C67.8604 24.2334 68.6125 24.9854 69.54 24.9854C70.4676 24.9854 71.2197 24.2334 71.2197 23.3057V5.03906C71.2197 2.26052 68.9592 0 66.1807 0H5.04004C2.2615 0 0.000976562 2.26052 0.000976562 5.03906V80.9609C0.000976562 83.7395 2.2615 86 5.04004 86H66.1807C68.9592 86 71.2197 83.7395 71.2197 80.9609V68.5863C71.2197 67.6587 70.4676 66.9067 69.54 66.9067Z" fill="#1D2124"/>
<path d="M51.0635 24.5234C51.0635 16.0026 44.1312 9.07031 35.6104 9.07031C27.0895 9.07031 20.1572 16.0026 20.1572 24.5234C20.1572 28.9439 22.0234 32.9362 25.0085 35.7553C25.0644 35.8151 25.1239 35.8717 25.1889 35.9233C27.9387 38.4393 31.5982 39.9764 35.6102 39.9764C39.6221 39.9764 43.2817 38.4391 46.0315 35.9233C46.0965 35.8717 46.1559 35.815 46.2119 35.7553C49.1973 32.9362 51.0635 28.9439 51.0635 24.5234ZM35.6104 12.4297C42.2789 12.4297 47.7041 17.8549 47.7041 24.5234C47.7041 27.2054 46.8255 29.6851 45.3425 31.6928C44.1037 29.8556 42.3869 28.4267 40.3936 27.5445C41.1847 26.5221 41.6572 25.2413 41.6572 23.8516V22.7598C41.6572 19.4254 38.9447 16.7129 35.6104 16.7129C32.276 16.7129 29.5635 19.4254 29.5635 22.7598V23.8516C29.5635 25.2413 30.036 26.5221 30.8271 27.5445C28.8338 28.4267 27.117 29.8556 25.8782 31.6928C24.3952 29.6851 23.5166 27.2054 23.5166 24.5234C23.5166 17.8549 28.9418 12.4297 35.6104 12.4297ZM32.9229 23.8516V22.7598C32.9229 21.2779 34.1285 20.0723 35.6104 20.0723C37.0922 20.0723 38.2979 21.2779 38.2979 22.7598V23.8516C38.2979 25.3334 37.0922 26.5391 35.6104 26.5391C34.1285 26.5391 32.9229 25.3334 32.9229 23.8516ZM28.3052 34.1534C29.7815 31.5356 32.5364 29.8984 35.6104 29.8984C38.6843 29.8984 41.4392 31.5356 42.9155 34.1534C40.8842 35.6981 38.3531 36.6172 35.6104 36.6172C32.8676 36.6172 30.3363 35.6981 28.3052 34.1534Z" fill="#1D2124"/>
<path d="M44.6807 73.5703H35.6104C34.6828 73.5703 33.9307 74.3223 33.9307 75.25C33.9307 76.1777 34.6828 76.9297 35.6104 76.9297H44.6807C45.6082 76.9297 46.3603 76.1777 46.3603 75.25C46.3603 74.3223 45.6082 73.5703 44.6807 73.5703Z" fill="#1D2124"/>
<path d="M44.6807 64.1641H20.8291C19.9016 64.1641 19.1494 64.9161 19.1494 65.8438C19.1494 66.7714 19.9016 67.5234 20.8291 67.5234H44.6807C45.6082 67.5234 46.3603 66.7714 46.3603 65.8438C46.3603 64.9161 45.6082 64.1641 44.6807 64.1641Z" fill="#1D2124"/>
<path d="M44.6807 54.7578H20.8291C19.9016 54.7578 19.1494 55.5098 19.1494 56.4375C19.1494 57.3652 19.9016 58.1172 20.8291 58.1172H44.6807C45.6082 58.1172 46.3603 57.3652 46.3603 56.4375C46.3603 55.5098 45.6082 54.7578 44.6807 54.7578Z" fill="#1D2124"/>
<path d="M14.8424 45.8437C14.5301 45.5313 14.0968 45.3516 13.6533 45.3516C13.2114 45.3516 12.778 45.5313 12.4658 45.8437C12.1534 46.1561 11.9736 46.5895 11.9736 47.0312C11.9736 47.473 12.1532 47.9064 12.4658 48.2188C12.7799 48.5312 13.2114 48.7109 13.6533 48.7109C14.0968 48.7109 14.5284 48.5312 14.8424 48.2188C15.1548 47.9064 15.3347 47.473 15.3347 47.0312C15.3347 46.5895 15.155 46.1561 14.8424 45.8437Z" fill="#1D2124"/>
<path d="M14.8424 55.25C14.5284 54.9375 14.0968 54.7578 13.6533 54.7578C13.2114 54.7578 12.7799 54.9375 12.4658 55.25C12.1534 55.5624 11.9736 55.9957 11.9736 56.4375C11.9736 56.8793 12.1532 57.3126 12.4658 57.625C12.7799 57.9375 13.2114 58.1172 13.6533 58.1172C14.0968 58.1172 14.5284 57.9375 14.8424 57.625C15.1548 57.3126 15.3347 56.8793 15.3347 56.4375C15.3347 55.9957 15.155 55.5624 14.8424 55.25Z" fill="#1D2124"/>
<path d="M13.6533 64.1641C13.2114 64.1641 12.7799 64.3438 12.4658 64.6562C12.1534 64.9686 11.9736 65.402 11.9736 65.8438C11.9736 66.2855 12.1532 66.7189 12.4658 67.0313C12.778 67.3437 13.2114 67.5234 13.6533 67.5234C14.0968 67.5234 14.5301 67.3437 14.8424 67.0313C15.1548 66.7189 15.3347 66.2855 15.3347 65.8438C15.3347 65.402 15.155 64.9686 14.8424 64.6562C14.5284 64.3438 14.0968 64.1641 13.6533 64.1641Z" fill="#1D2124"/>
<path d="M44.6807 45.3516H20.8291C19.9016 45.3516 19.1494 46.1036 19.1494 47.0312C19.1494 47.9589 19.9016 48.7109 20.8291 48.7109H44.6807C45.6082 48.7109 46.3603 47.9589 46.3603 47.0312C46.3603 46.1036 45.6082 45.3516 44.6807 45.3516Z" fill="#1D2124"/>
<path d="M82.4727 21.8897C80.8408 20.9475 78.9398 20.6973 77.1193 21.1849C75.2992 21.6727 73.7778 22.84 72.8358 24.4719L51.6983 61.0828C51.5825 61.2836 51.5093 61.5061 51.4836 61.7364L49.9957 75.0637C49.9218 75.7269 50.2473 76.371 50.8252 76.7048C51.086 76.8553 51.3758 76.9299 51.6648 76.9299C52.0162 76.9299 52.3663 76.8198 52.6611 76.6026L63.4588 68.6503C63.6454 68.5129 63.8016 68.3384 63.9173 68.1377L85.0547 31.5267C86.9997 28.1579 85.8414 23.8348 82.4727 21.8897ZM54.5373 64.6616L59.3986 67.4683L53.7602 71.6209L54.5373 64.6616ZM61.8479 65.0032L55.4475 61.3079L72.4098 31.9285L78.8103 35.6238L61.8479 65.0032ZM82.1454 29.8469L80.4898 32.7146L74.0893 29.0193L75.745 26.1516C76.2385 25.2968 77.0353 24.6854 77.9887 24.4299C78.9425 24.1742 79.9382 24.3056 80.7928 24.7991C81.6476 25.2926 82.259 26.0894 82.5145 27.0428C82.77 27.9962 82.6389 28.9921 82.1454 29.8469Z" fill="#1D2124"/>
</g>
<defs>
<clipPath id="clip0_23_4522">
<rect width="86" height="86" fill="white"/>
</clipPath>
</defs>
</svg>
