<svg width="26" height="25" viewBox="0 0 26 25" fill="none" xmlns="http://www.w3.org/2000/svg">
<g clip-path="url(#clip0_511_2748)">
<path d="M23.7109 9.75234C23.2619 9.4194 22.8792 9.00522 22.5828 8.53125C22.4445 7.96058 22.4161 7.36878 22.4992 6.7875C22.5664 5.69844 22.6422 4.46406 21.8391 3.6625C21.0359 2.86094 19.8031 2.93594 18.7141 3.00234C18.1327 3.08496 17.541 3.05633 16.9703 2.91797C16.4958 2.62144 16.081 2.23851 15.7477 1.78906C15.0141 0.950781 14.1828 0 13 0C11.8172 0 10.9859 0.950781 10.2523 1.78906C9.91918 2.23792 9.50504 2.62054 9.03125 2.91719C8.46058 3.05553 7.86878 3.0839 7.2875 3.00078C6.19922 2.93359 4.96484 2.85859 4.1625 3.66172C3.36016 4.46484 3.43438 5.69844 3.50156 6.78672C3.58468 7.368 3.55631 7.9598 3.41797 8.53047C3.1214 9.00478 2.73848 9.41925 2.28906 9.75234C1.45 10.4859 0.5 11.3172 0.5 12.5C0.5 13.6828 1.45 14.5141 2.28906 15.2477C2.73812 15.5806 3.12077 15.9948 3.41719 16.4688C3.55556 17.0397 3.58393 17.6317 3.50078 18.2133C3.43359 19.3016 3.35781 20.5359 4.16094 21.3383C4.96406 22.1406 6.19687 22.0656 7.28594 21.9984C7.86728 21.9158 8.45903 21.9445 9.02969 22.0828C9.5039 22.3792 9.91835 22.7618 10.2516 23.2109C10.9852 24.0492 11.8141 25 12.9992 25C14.1844 25 15.0133 24.0492 15.7469 23.2109C16.08 22.7621 16.4942 22.3795 16.968 22.0828C17.5386 21.9445 18.1304 21.9161 18.7117 21.9992C19.8 22.0664 21.0352 22.1422 21.8367 21.3383C22.6383 20.5344 22.5648 19.3016 22.4977 18.2133C22.4145 17.6317 22.4429 17.0397 22.5812 16.4688C22.8777 15.9948 23.2603 15.5806 23.7094 15.2477C24.5484 14.5141 25.4984 13.6852 25.4984 12.5C25.4984 11.3148 24.55 10.4859 23.7109 9.75234ZM22.6828 14.0719C22.0404 14.5479 21.5128 15.1619 21.1391 15.8688C20.8926 16.6567 20.8246 17.4896 20.9398 18.307C20.9859 19.0664 21.0391 19.9273 20.7336 20.232C20.4281 20.5367 19.568 20.4828 18.8086 20.4383C17.9911 20.3233 17.1583 20.3914 16.3703 20.6375C15.6636 21.0115 15.0496 21.539 14.5734 22.1812C14.032 22.8 13.4734 23.4375 13 23.4375C12.5266 23.4375 11.968 22.8 11.4281 22.1828C10.9519 21.5405 10.3379 21.0131 9.63125 20.6391C9.16007 20.4632 8.65889 20.3817 8.15625 20.3992C7.83594 20.3992 7.51094 20.4195 7.18906 20.4391C6.42891 20.4867 5.56953 20.5391 5.26406 20.2336C4.95859 19.9281 5.0125 19.068 5.05859 18.3094C5.17389 17.4916 5.10584 16.6585 4.85938 15.8703C4.4856 15.1635 3.95807 14.5495 3.31563 14.0734C2.7 13.5312 2.0625 12.9734 2.0625 12.5C2.0625 12.0266 2.7 11.4688 3.31719 10.9281C3.95963 10.4521 4.48716 9.83809 4.86094 9.13125C5.10739 8.34333 5.17544 7.51045 5.06016 6.69297C5.01406 5.93203 4.96094 5.07109 5.26562 4.76562C5.57031 4.46016 6.43125 4.51406 7.19063 4.55937C8.00808 4.67526 8.8411 4.6072 9.62891 4.36016C10.3356 3.98616 10.9496 3.45867 11.4258 2.81641C11.968 2.2 12.5266 1.5625 13 1.5625C13.4734 1.5625 14.032 2.2 14.5719 2.81719C15.0481 3.45945 15.6621 3.98694 16.3688 4.36094C17.1569 4.60771 17.99 4.67603 18.8078 4.56094C19.5688 4.51406 20.4273 4.46094 20.7328 4.76641C21.0383 5.07188 20.9844 5.93203 20.9383 6.69063C20.823 7.50836 20.891 8.3415 21.1375 9.12969C21.5113 9.83652 22.0388 10.4505 22.6812 10.9266C23.3 11.4688 23.9375 12.0266 23.9375 12.5C23.9375 12.9734 23.3 13.5312 22.6828 14.0719Z" fill="#1D2427"/>
<path d="M12.2188 9.375C12.2188 8.91145 12.0813 8.45831 11.8238 8.07288C11.5662 7.68746 11.2002 7.38705 10.7719 7.20966C10.3437 7.03227 9.8724 6.98585 9.41776 7.07629C8.96312 7.16672 8.5455 7.38994 8.21772 7.71772C7.88994 8.0455 7.66672 8.46312 7.57629 8.91776C7.48585 9.3724 7.53227 9.84365 7.70966 10.2719C7.88705 10.7002 8.18746 11.0662 8.57288 11.3238C8.95831 11.5813 9.41145 11.7188 9.875 11.7188C10.4966 11.7188 11.0927 11.4718 11.5323 11.0323C11.9718 10.5927 12.2188 9.9966 12.2188 9.375ZM9.09375 9.375C9.09375 9.22048 9.13957 9.06944 9.22542 8.94096C9.31126 8.81249 9.43327 8.71235 9.57603 8.65322C9.71878 8.59409 9.87587 8.57862 10.0274 8.60876C10.179 8.63891 10.3182 8.71331 10.4274 8.82257C10.5367 8.93183 10.6111 9.07104 10.6412 9.22259C10.6714 9.37413 10.6559 9.53122 10.5968 9.67397C10.5377 9.81673 10.4375 9.93874 10.309 10.0246C10.1806 10.1104 10.0295 10.1563 9.875 10.1563C9.6678 10.1563 9.46909 10.0739 9.32257 9.92743C9.17606 9.78092 9.09375 9.5822 9.09375 9.375Z" fill="#1D2427"/>
<path d="M16.125 13.2812C15.6615 13.2812 15.2083 13.4187 14.8229 13.6762C14.4375 13.9338 14.1371 14.2998 13.9597 14.7281C13.7823 15.1564 13.7359 15.6276 13.8263 16.0822C13.9167 16.5369 14.1399 16.9545 14.4677 17.2823C14.7955 17.6101 15.2131 17.8333 15.6678 17.9237C16.1224 18.0141 16.5937 17.9677 17.0219 17.7903C17.4502 17.6129 17.8162 17.3125 18.0738 16.9271C18.3313 16.5417 18.4688 16.0886 18.4688 15.625C18.4688 15.0034 18.2218 14.4073 17.7823 13.9677C17.3427 13.5282 16.7466 13.2813 16.125 13.2812ZM16.125 16.4062C15.9705 16.4062 15.8194 16.3604 15.691 16.2746C15.5625 16.1887 15.4624 16.0667 15.4032 15.924C15.3441 15.7812 15.3286 15.6241 15.3588 15.4726C15.3889 15.321 15.4633 15.1818 15.5726 15.0726C15.6818 14.9633 15.821 14.8889 15.9726 14.8588C16.1241 14.8286 16.2812 14.8441 16.424 14.9032C16.5667 14.9624 16.6887 15.0625 16.7746 15.191C16.8604 15.3194 16.9063 15.4705 16.9063 15.625C16.9063 15.8322 16.8239 16.0309 16.6774 16.1774C16.5309 16.3239 16.3322 16.4062 16.125 16.4062Z" fill="#1D2427"/>
<path d="M17.4406 8.06084C17.3728 7.98431 17.2898 7.92271 17.197 7.87997C17.1041 7.83723 17.0034 7.81429 16.9011 7.8126C16.7989 7.81091 16.6975 7.83051 16.6033 7.87016C16.509 7.9098 16.4241 7.96862 16.3538 8.04288L8.54133 15.8554C7.84211 16.5546 8.93196 17.6765 9.64602 16.9601L17.4585 9.14756C17.532 9.07688 17.5902 8.9918 17.6294 8.89764C17.6685 8.80348 17.6879 8.70226 17.6862 8.60029C17.6845 8.49832 17.6618 8.39779 17.6196 8.30498C17.5773 8.21217 17.5164 8.12906 17.4406 8.06084Z" fill="#1D2427"/>
</g>
<defs>
<clipPath id="clip0_511_2748">
<rect width="25" height="25" fill="white" transform="translate(0.5)"/>
</clipPath>
</defs>
</svg>
