<svg width="20" height="20" viewBox="0 0 20 20" fill="none" xmlns="http://www.w3.org/2000/svg">
<path d="M7.22656 11.9422C7.22656 13.0172 8.05156 13.8839 9.07656 13.8839H11.1682C12.0599 13.8839 12.7849 13.1255 12.7849 12.1922C12.7849 11.1755 12.3432 10.8172 11.6849 10.5839L8.32656 9.41719C7.66823 9.18385 7.22656 8.82552 7.22656 7.80885C7.22656 6.87552 7.95156 6.11719 8.84323 6.11719H10.9349C11.9599 6.11719 12.7849 6.98385 12.7849 8.05885" stroke="#7F879E" stroke-width="1.5" stroke-linecap="round" stroke-linejoin="round"/>
<path d="M10 5V15" stroke="#7F879E" stroke-width="1.5" stroke-linecap="round" stroke-linejoin="round"/>
<path d="M10.0001 18.3346C14.6025 18.3346 18.3334 14.6037 18.3334 10.0013C18.3334 5.39893 14.6025 1.66797 10.0001 1.66797C5.39771 1.66797 1.66675 5.39893 1.66675 10.0013C1.66675 14.6037 5.39771 18.3346 10.0001 18.3346Z" stroke="#7F879E" stroke-width="1.5" stroke-linecap="round" stroke-linejoin="round"/>
</svg>
