<svg width="25" height="26" viewBox="0 0 25 26" fill="none" xmlns="http://www.w3.org/2000/svg">
<g clip-path="url(#clip0_141_137)">
<path d="M24.9891 13.0322C24.9891 11.984 24.904 11.219 24.7199 10.4258H12.75V15.157H19.7761C19.6345 16.3328 18.8695 18.1035 17.1696 19.2934L17.1458 19.4518L20.9305 22.3837L21.1927 22.4099C23.6008 20.1858 24.9891 16.9136 24.9891 13.0322Z" fill="#4285F4"/>
<path d="M12.7485 25.4971C16.1907 25.4971 19.0805 24.3638 21.1912 22.409L17.1682 19.2925C16.0916 20.0433 14.6467 20.5674 12.7485 20.5674C9.37715 20.5674 6.51572 18.3435 5.4957 15.2695L5.34619 15.2822L1.41084 18.3278L1.35938 18.4709C3.45586 22.6355 7.76221 25.4971 12.7485 25.4971Z" fill="#34A853"/>
<path d="M5.49619 15.2713C5.22705 14.478 5.07129 13.628 5.07129 12.7498C5.07129 11.8715 5.22705 11.0216 5.48203 10.2283L5.4749 10.0594L1.49023 6.96484L1.35986 7.02686C0.495801 8.75508 0 10.6958 0 12.7498C0 14.8038 0.495801 16.7444 1.35986 18.4727L5.49619 15.2713Z" fill="#FBBC05"/>
<path d="M12.7485 4.92959C15.1425 4.92959 16.7573 5.96367 17.6781 6.82783L21.2762 3.31475C19.0664 1.26074 16.1907 0 12.7485 0C7.76221 0 3.45586 2.86143 1.35938 7.02607L5.48154 10.2275C6.51572 7.15361 9.37715 4.92959 12.7485 4.92959Z" fill="#EB4335"/>
</g>
<defs>
<clipPath id="clip0_141_137">
<rect width="25" height="25.5859" fill="white"/>
</clipPath>
</defs>
</svg>
