<svg width="18" height="19" viewBox="0 0 18 19" fill="none" xmlns="http://www.w3.org/2000/svg">
<path d="M12.6376 18.0351H5.36262C4.5399 18.0657 3.73837 17.7703 3.13216 17.2133C2.52596 16.6562 2.16407 15.8825 2.12512 15.0601V11.1601C2.12512 10.9944 2.19096 10.8354 2.30817 10.7182C2.42538 10.601 2.58436 10.5351 2.75012 10.5351C2.91588 10.5351 3.07485 10.601 3.19206 10.7182C3.30927 10.8354 3.37512 10.9944 3.37512 11.1601V15.0601C3.41353 15.551 3.64351 16.0071 4.01539 16.3299C4.38727 16.6526 4.87119 16.8162 5.36262 16.7851H12.6376C13.129 16.8162 13.613 16.6526 13.9848 16.3299C14.3567 16.0071 14.5867 15.551 14.6251 15.0601V11.1601C14.6251 10.9944 14.691 10.8354 14.8082 10.7182C14.9254 10.601 15.0844 10.5351 15.2501 10.5351C15.4159 10.5351 15.5748 10.601 15.6921 10.7182C15.8093 10.8354 15.8751 10.9944 15.8751 11.1601V15.0601C15.8362 15.8825 15.4743 16.6562 14.8681 17.2133C14.2619 17.7703 13.4603 18.0657 12.6376 18.0351ZM17.5689 9.72887C17.6274 9.67077 17.6739 9.60164 17.7057 9.52548C17.7374 9.44932 17.7537 9.36763 17.7537 9.28512C17.7537 9.20261 17.7374 9.12092 17.7057 9.04476C17.6739 8.9686 17.6274 8.89947 17.5689 8.84137L9.44386 0.716368C9.38576 0.657788 9.31664 0.611291 9.24048 0.579561C9.16431 0.547831 9.08262 0.531494 9.00012 0.531494C8.91761 0.531494 8.83592 0.547831 8.75976 0.579561C8.68359 0.611291 8.61447 0.657788 8.55637 0.716368L0.431366 8.84137C0.313676 8.95906 0.247559 9.11868 0.247559 9.28512C0.247559 9.45156 0.313676 9.61118 0.431366 9.72887C0.549056 9.84656 0.708677 9.91267 0.875116 9.91267C1.04155 9.91267 1.20118 9.84656 1.31887 9.72887L9.00012 2.04137L16.6814 9.72887C16.7395 9.78745 16.8086 9.83395 16.8848 9.86568C16.9609 9.89741 17.0426 9.91374 17.1251 9.91374C17.2076 9.91374 17.2893 9.89741 17.3655 9.86568C17.4416 9.83395 17.5108 9.78745 17.5689 9.72887Z" fill="#7A7B7C"/>
</svg>
