<svg width="20" height="21" viewBox="0 0 20 21" fill="none" xmlns="http://www.w3.org/2000/svg">
<path d="M16.3503 7.21794V15.1887C16.3503 17.6413 14.8869 18.4588 13.0802 18.4588H6.54008C4.73337 18.4588 3.27002 17.6413 3.27002 15.1887V7.21794C3.27002 4.56101 4.73337 3.94788 6.54008 3.94788C6.54008 4.45474 6.74444 4.91254 7.07962 5.24772C7.4148 5.5829 7.87263 5.78728 8.37949 5.78728H11.2408C12.2545 5.78728 13.0802 4.96159 13.0802 3.94788C14.8869 3.94788 16.3503 4.56101 16.3503 7.21794Z" stroke="#7A7B7C" stroke-width="1.5" stroke-linecap="round" stroke-linejoin="round"/>
<path d="M13.0804 3.94781C13.0804 4.96153 12.2547 5.78722 11.241 5.78722H8.37969C7.87283 5.78722 7.415 5.58283 7.07982 5.24765C6.74464 4.91247 6.54028 4.45467 6.54028 3.94781C6.54028 2.93409 7.36597 2.1084 8.37969 2.1084H11.241C11.7479 2.1084 12.2057 2.31278 12.5409 2.64796C12.876 2.98314 13.0804 3.44095 13.0804 3.94781Z" stroke="#7A7B7C" stroke-width="1.5" stroke-linecap="round" stroke-linejoin="round"/>
<path d="M6.54028 11.1042H9.81034" stroke="#7A7B7C" stroke-width="1.5" stroke-linecap="round" stroke-linejoin="round"/>
<path d="M6.54028 14.3711H13.0804" stroke="#7A7B7C" stroke-width="1.5" stroke-linecap="round" stroke-linejoin="round"/>
</svg>
