<svg width="44" height="45" viewBox="0 0 44 45" fill="none" xmlns="http://www.w3.org/2000/svg">
<circle cx="22" cy="22.5" r="21" stroke="#F3F3F3" stroke-width="1.5"/>
<path d="M15.5833 20.668C14.575 20.668 13.75 21.493 13.75 22.5013C13.75 23.5096 14.575 24.3346 15.5833 24.3346C16.5917 24.3346 17.4167 23.5096 17.4167 22.5013C17.4167 21.493 16.5917 20.668 15.5833 20.668Z" fill="#7F879E"/>
<path d="M28.4168 20.668C27.4085 20.668 26.5835 21.493 26.5835 22.5013C26.5835 23.5096 27.4085 24.3346 28.4168 24.3346C29.4252 24.3346 30.2502 23.5096 30.2502 22.5013C30.2502 21.493 29.4252 20.668 28.4168 20.668Z" fill="#7F879E"/>
<path d="M22.0001 20.668C20.9917 20.668 20.1667 21.493 20.1667 22.5013C20.1667 23.5096 20.9917 24.3346 22.0001 24.3346C23.0084 24.3346 23.8334 23.5096 23.8334 22.5013C23.8334 21.493 23.0084 20.668 22.0001 20.668Z" fill="#7F879E"/>
</svg>
