<svg width="86" height="86" viewBox="0 0 86 86" fill="none" xmlns="http://www.w3.org/2000/svg">
<path d="M84.7232 2.6875V70.2916C84.7232 78.9453 77.6685 86 69.0014 86H16.9982C8.33105 86 1.27637 78.9453 1.27637 70.2916V64.0566C1.27637 62.565 2.48574 61.3691 3.96387 61.3691H18.127V2.6875C18.127 1.20938 19.3364 0 20.8145 0H82.0357C83.5139 0 84.7232 1.20954 84.7232 2.6875ZM79.3482 70.2916V5.37517H23.502V61.3692H55.9804C57.4586 61.3692 58.6679 62.5652 58.6679 64.0567V70.2917C58.6679 75.9892 63.3039 80.6252 69.0014 80.6252C74.7123 80.625 79.3482 75.9891 79.3482 70.2916ZM16.9982 80.625H57.1764C54.7576 77.8569 53.2929 74.2422 53.2929 70.2916V66.7441H6.65137V70.2916C6.65137 75.9891 11.2873 80.625 16.9982 80.625Z" fill="#1D2124"/>
<path d="M74.7525 24.9266C75.8141 25.9747 75.8141 27.6813 74.7525 28.7294C73.7044 29.7775 72.0113 29.7775 70.9632 28.7294L66.811 24.5772V37.1278C66.811 38.6059 65.6016 39.8153 64.1235 39.8153C62.6454 39.8153 61.436 38.6059 61.436 37.1278V24.5772L57.2838 28.7294C56.7597 29.2534 56.0744 29.5222 55.3891 29.5222C54.7038 29.5222 54.0185 29.2534 53.4944 28.7294C52.4329 27.6813 52.4329 25.9747 53.4944 24.9266L62.2288 16.1922C63.2366 15.1844 65.0104 15.1844 66.0182 16.1922L74.7525 24.9266Z" fill="#1D2124"/>
<path d="M66.8115 44.505V47.1253C66.8115 48.6034 65.6021 49.8128 64.124 49.8128C62.6459 49.8128 61.4365 48.6034 61.4365 47.1253V44.505C61.4365 43.0134 62.6459 41.8175 64.124 41.8175C65.6021 41.8175 66.8115 43.0134 66.8115 44.505Z" fill="#1D2124"/>
<path d="M66.0187 51.8284C66.5293 52.339 66.8115 53.0244 66.8115 53.7366C66.8115 54.4353 66.5293 55.1341 66.0321 55.6312C65.5215 56.1284 64.8362 56.4241 64.124 56.4241C63.4253 56.4241 62.7265 56.1284 62.2293 55.6312C61.7187 55.1341 61.4365 54.4487 61.4365 53.7366C61.4365 53.0244 61.7187 52.3256 62.2293 51.8284C63.2237 50.834 65.0243 50.834 66.0187 51.8284Z" fill="#1D2124"/>
<path d="M66.0182 51.8284C65.0238 50.8341 63.2232 50.8341 62.2288 51.8284C61.7182 52.3256 61.436 53.0244 61.436 53.7366C61.436 54.4489 61.7182 55.1341 62.2288 55.6313C62.726 56.1285 63.4248 56.4241 64.1235 56.4241C64.8357 56.4241 65.521 56.1285 66.0316 55.6313C66.5288 55.1341 66.811 54.4353 66.811 53.7366C66.811 53.0244 66.5288 52.3391 66.0182 51.8284ZM64.1233 49.8128C65.6015 49.8128 66.8108 48.6035 66.8108 47.1253V44.505C66.8108 43.0135 65.6015 41.8175 64.1233 41.8175C62.6452 41.8175 61.4358 43.0135 61.4358 44.505V47.1253C61.436 48.6035 62.6454 49.8128 64.1233 49.8128ZM74.7524 28.7294C75.814 27.6813 75.814 25.9747 74.7524 24.9266L66.018 16.1922C65.0102 15.1844 63.2365 15.1844 62.2287 16.1922L53.4943 24.9266C52.4327 25.9747 52.4327 27.6813 53.4943 28.7294C54.0183 29.2535 54.7037 29.5222 55.389 29.5222C56.0743 29.5222 56.7596 29.2535 57.2837 28.7294L61.4358 24.5772V37.1278C61.4358 38.606 62.6452 39.8153 64.1233 39.8153C65.6015 39.8153 66.8108 38.606 66.8108 37.1278V24.5772L70.963 28.7294C72.0113 29.7775 73.7043 29.7775 74.7524 28.7294ZM79.3482 5.37518V70.2917C79.3482 75.9892 74.7123 80.6252 69.0013 80.6252C63.3038 80.6252 58.6679 75.9892 58.6679 70.2917V64.0567C58.6679 62.5652 57.4585 61.3692 55.9804 61.3692H23.502V5.37518H79.3482ZM30.1266 40.9844H48.7107C49.826 40.9844 50.7263 40.0841 50.7263 38.9688C50.7263 37.8535 49.826 36.9531 48.7107 36.9531H30.1266C29.0113 36.9531 28.111 37.8535 28.111 38.9688C28.111 40.0841 29.0113 40.9844 30.1266 40.9844ZM48.7107 52.2719H30.1266C29.0113 52.2719 28.111 53.1722 28.111 54.2875C28.111 55.4028 29.0113 56.3031 30.1266 56.3031H48.7107C49.826 56.3031 50.7263 55.4028 50.7263 54.2875C50.7263 53.1722 49.826 52.2719 48.7107 52.2719ZM48.7107 44.6125H30.1266C29.0113 44.6125 28.111 45.5128 28.111 46.6281C28.111 47.7435 29.0113 48.6438 30.1266 48.6438H48.7107C49.826 48.6438 50.7263 47.7435 50.7263 46.6281C50.7263 45.5128 49.826 44.6125 48.7107 44.6125ZM44.2763 30.3689V15.171C44.2763 14.0556 43.376 13.1553 42.2607 13.1553H31.1882C30.0729 13.1553 29.1726 14.0556 29.1726 15.171V30.3688C29.1726 31.4841 30.0729 32.3844 31.1882 32.3844H42.2607C43.376 32.3844 44.2763 31.4841 44.2763 30.3689Z" fill="#EBEEF0"/>
<path d="M57.1764 80.625H16.9982C11.2873 80.625 6.65137 75.9891 6.65137 70.2916V66.7441H53.2931V70.2916C53.2931 74.2422 54.7578 77.8569 57.1764 80.625Z" fill="#96E6A1"/>
<path d="M50.7266 38.9688C50.7266 40.0841 49.8263 40.9844 48.711 40.9844H30.127C29.0116 40.9844 28.1113 40.0841 28.1113 38.9688C28.1113 37.8534 29.0116 36.9531 30.127 36.9531H48.711C49.8263 36.9531 50.7266 37.8534 50.7266 38.9688Z" fill="#1D2124"/>
<path d="M50.7266 46.6281C50.7266 47.7434 49.8263 48.6437 48.711 48.6437H30.127C29.0116 48.6437 28.1113 47.7434 28.1113 46.6281C28.1113 45.5128 29.0116 44.6125 30.127 44.6125H48.711C49.8263 44.6125 50.7266 45.5128 50.7266 46.6281Z" fill="#1D2124"/>
<path d="M48.711 52.2719C49.8263 52.2719 50.7266 53.1722 50.7266 54.2875C50.7266 55.4028 49.8263 56.3031 48.711 56.3031H30.127C29.0116 56.3031 28.1113 55.4028 28.1113 54.2875C28.1113 53.1722 29.0116 52.2719 30.127 52.2719H48.711Z" fill="#1D2124"/>
<path d="M40.2454 17.1871H33.2041V28.3535H40.2454V17.1871Z" fill="#96E6A1"/>
<path d="M31.1885 13.1553H42.261C43.3763 13.1553 44.2766 14.0556 44.2766 15.171V30.3688C44.2766 31.4841 43.3763 32.3844 42.261 32.3844H31.1885C30.0732 32.3844 29.1729 31.4841 29.1729 30.3688V15.171C29.1729 14.0556 30.0732 13.1553 31.1885 13.1553ZM33.2041 28.3531H40.2454V17.1866H33.2041V28.3531Z" fill="#1D2124"/>
</svg>
