<svg width="22" height="23" viewBox="0 0 22 23" fill="none" xmlns="http://www.w3.org/2000/svg">
<g clip-path="url(#clip0_1_100)">
<path d="M11 0.285156C4.93423 0.285156 0 5.21939 0 11.2852C0 17.3509 4.93423 22.2852 11 22.2852C17.0658 22.2852 22 17.3501 22 11.2852C22 5.22025 17.0658 0.285156 11 0.285156ZM11 20.5811C5.8749 20.5811 1.7041 16.4111 1.7041 11.2852C1.7041 6.1592 5.8749 1.98925 11 1.98925C16.1251 1.98925 20.2959 6.1592 20.2959 11.2852C20.2959 16.4111 16.126 20.5811 11 20.5811Z" fill="black"/>
<path d="M15.2603 10.3579H11.8521V6.94973C11.8521 6.47939 11.4712 6.09766 11 6.09766C10.5288 6.09766 10.148 6.47939 10.148 6.94973V10.3579H6.73977C6.26857 10.3579 5.8877 10.7397 5.8877 11.21C5.8877 11.6803 6.26857 12.0621 6.73977 12.0621H10.148V15.4703C10.148 15.9406 10.5288 16.3223 11 16.3223C11.4712 16.3223 11.8521 15.9406 11.8521 15.4703V12.0621H15.2603C15.7315 12.0621 16.1124 11.6803 16.1124 11.21C16.1124 10.7397 15.7315 10.3579 15.2603 10.3579Z" fill="black"/>
</g>
<defs>
<clipPath id="clip0_1_100">
<rect width="22" height="22" fill="white" transform="translate(0 0.285156)"/>
</clipPath>
</defs>
</svg>
