<svg width="44" height="45" viewBox="0 0 44 45" fill="none" xmlns="http://www.w3.org/2000/svg">
<circle cx="22" cy="22.5" r="21" stroke="#F3F3F3" stroke-width="1.5"/>
<path d="M26.4185 13.332H17.5818C15.6293 13.332 14.0435 14.927 14.0435 16.8704V29.7862C14.0435 31.4362 15.226 32.1329 16.6743 31.3354L21.1476 28.8512C21.6243 28.5854 22.3943 28.5854 22.8618 28.8512L27.3351 31.3354C28.7835 32.142 29.966 31.4454 29.966 29.7862V16.8704C29.9568 14.927 28.371 13.332 26.4185 13.332Z" stroke="#7F879E" stroke-width="1.5" stroke-linecap="round" stroke-linejoin="round"/>
<path d="M26.4185 13.332H17.5818C15.6293 13.332 14.0435 14.927 14.0435 16.8704V29.7862C14.0435 31.4362 15.226 32.1329 16.6743 31.3354L21.1476 28.8512C21.6243 28.5854 22.3943 28.5854 22.8618 28.8512L27.3351 31.3354C28.7835 32.142 29.966 31.4454 29.966 29.7862V16.8704C29.9568 14.927 28.371 13.332 26.4185 13.332Z" stroke="#7F879E" stroke-width="1.5" stroke-linecap="round" stroke-linejoin="round"/>
</svg>
