<svg width="22" height="22" viewBox="0 0 22 22" fill="none" xmlns="http://www.w3.org/2000/svg">
<path d="M10.3372 21.3373C7.59558 21.3373 4.96628 20.2482 3.02769 18.3097C1.08909 16.3711 0 13.7418 0 11.0002C0 8.25858 1.08909 5.62928 3.02769 3.69068C4.96628 1.75209 7.59558 0.662996 10.3372 0.662996C12.2739 0.648734 14.1745 1.18729 15.8159 2.21545L14.8197 3.81301C13.4768 2.97174 11.9218 2.53099 10.3372 2.54248C8.6644 2.54248 7.02919 3.03852 5.63833 3.96786C4.24747 4.8972 3.16343 6.21811 2.52329 7.76355C1.88315 9.30899 1.71566 11.0095 2.042 12.6502C2.36834 14.2908 3.17386 15.7978 4.35668 16.9807C5.53951 18.1635 7.04653 18.969 8.68716 19.2953C10.3278 19.6217 12.0283 19.4542 13.5738 18.814C15.1192 18.1739 16.4401 17.0899 17.3695 15.699C18.2988 14.3081 18.7949 12.6729 18.7949 11.0002C18.7994 10.254 18.7143 9.51004 18.5411 8.78425L20.3642 8.32942C20.5746 9.20397 20.6787 10.1007 20.6743 11.0002C20.6711 13.7408 19.581 16.3682 17.6431 18.3061C15.7052 20.244 13.0778 21.3341 10.3372 21.3373Z" fill="#C5F06E"/>
<path d="M10.3339 13.8278C10.0846 13.8277 9.84566 13.7287 9.66946 13.5524L5.24609 9.12904L6.57489 7.80025L10.3339 11.5592L20.671 1.22205L21.9998 2.55084L10.9983 13.5524C10.8221 13.7287 10.5831 13.8277 10.3339 13.8278Z" fill="#C5F06E"/>
</svg>
