<svg width="22" height="21" viewBox="0 0 22 21" fill="none" xmlns="http://www.w3.org/2000/svg">
<path d="M20.04 16.1926C20.04 16.5226 19.9666 16.8617 19.8108 17.1917C19.655 17.5217 19.4533 17.8334 19.1875 18.1267C18.7383 18.6217 18.2433 18.9792 17.6841 19.2084C17.1341 19.4376 16.5383 19.5567 15.8966 19.5567C14.9616 19.5567 13.9625 19.3367 12.9083 18.8876C11.8541 18.4384 10.8 17.8334 9.75496 17.0726C8.7008 16.3026 7.70163 15.4501 6.7483 14.5059C5.80413 13.5526 4.95163 12.5534 4.1908 11.5084C3.43913 10.4634 2.83413 9.41839 2.39413 8.38256C1.95413 7.33756 1.73413 6.33839 1.73413 5.38506C1.73413 4.76172 1.84413 4.16589 2.06413 3.61589C2.28413 3.05672 2.63246 2.54339 3.1183 2.08506C3.70496 1.50756 4.34663 1.22339 5.02496 1.22339C5.28163 1.22339 5.5383 1.27839 5.76746 1.38839C6.0058 1.49839 6.21663 1.66339 6.38163 1.90172L8.5083 4.89922C8.6733 5.12839 8.79246 5.33922 8.87496 5.54089C8.95746 5.73339 9.0033 5.92589 9.0033 6.10006C9.0033 6.32006 8.93913 6.54006 8.8108 6.75089C8.69163 6.96172 8.51746 7.18172 8.29746 7.40172L7.6008 8.12589C7.49996 8.22672 7.45413 8.34589 7.45413 8.49256C7.45413 8.56589 7.4633 8.63006 7.48163 8.70339C7.50913 8.77672 7.53663 8.83172 7.55496 8.88672C7.71996 9.18922 8.00413 9.58339 8.40746 10.0601C8.81996 10.5367 9.25996 11.0226 9.73663 11.5084C10.2316 11.9942 10.7083 12.4434 11.1941 12.8559C11.6708 13.2592 12.065 13.5342 12.3766 13.6992C12.4225 13.7176 12.4775 13.7451 12.5416 13.7726C12.615 13.8001 12.6883 13.8092 12.7708 13.8092C12.9266 13.8092 13.0458 13.7542 13.1466 13.6534L13.8433 12.9659C14.0725 12.7367 14.2925 12.5626 14.5033 12.4526C14.7141 12.3242 14.925 12.2601 15.1541 12.2601C15.3283 12.2601 15.5116 12.2967 15.7133 12.3792C15.915 12.4617 16.1258 12.5809 16.355 12.7367L19.3891 14.8909C19.6275 15.0559 19.7925 15.2484 19.8933 15.4776C19.985 15.7067 20.04 15.9359 20.04 16.1926Z" stroke="#1D2124" stroke-width="2" stroke-miterlimit="10"/>
</svg>
