<svg width="20" height="21" viewBox="0 0 20 21" fill="none" xmlns="http://www.w3.org/2000/svg">
<path d="M9.48893 11.2296C10.166 11.2307 10.8282 11.0309 11.3917 10.6555C11.9552 10.2802 12.3947 9.74607 12.6546 9.12083C12.9145 8.4956 12.983 7.80733 12.8516 7.14312C12.7202 6.47891 12.3947 5.86861 11.9163 5.38945C11.4379 4.91028 10.8282 4.5838 10.1642 4.4513C9.50018 4.3188 8.8118 4.38625 8.18615 4.6451C7.56049 4.90396 7.02569 5.34259 6.6494 5.90549C6.27312 6.46839 6.07227 7.13026 6.07227 7.80735C6.07226 8.71402 6.43206 9.58363 7.07265 10.2253C7.71324 10.8669 8.58227 11.2281 9.48893 11.2296ZM9.48893 5.58513C9.92845 5.58513 10.3581 5.71546 10.7235 5.95964C11.089 6.20382 11.3738 6.55089 11.542 6.95694C11.7102 7.363 11.7542 7.80982 11.6685 8.24089C11.5827 8.67195 11.3711 9.06792 11.0603 9.3787C10.7495 9.68948 10.3535 9.90113 9.92247 9.98687C9.4914 10.0726 9.04458 10.0286 8.63852 9.86042C8.23247 9.69222 7.8854 9.40739 7.64122 9.04195C7.39704 8.67651 7.26671 8.24687 7.26671 7.80735C7.26671 7.21798 7.50084 6.65275 7.91758 6.236C8.33433 5.81926 8.89956 5.58513 9.48893 5.58513Z" fill="#7A7B7C"/>
<path d="M7.95 12.0852C7.40203 12.0847 6.85934 12.1923 6.3531 12.4021C5.84685 12.6118 5.38702 12.9195 5 13.3074L5.83333 14.1741C6.11051 13.895 6.44033 13.6737 6.80368 13.523C7.16702 13.3723 7.55665 13.2953 7.95 13.2963H11.0278C11.4211 13.2953 11.8108 13.3723 12.1741 13.523C12.5374 13.6737 12.8673 13.895 13.1444 14.1741L13.9889 13.3297C13.601 12.9394 13.1396 12.6299 12.6313 12.4192C12.123 12.2084 11.578 12.1006 11.0278 12.1019L7.95 12.0852Z" fill="#7A7B7C"/>
<path d="M18.8889 18.3296L15.8111 15.2518C17.2376 13.6065 17.9699 11.4719 17.8539 9.2974C17.7378 7.12293 16.7824 5.07836 15.1889 3.59429C13.5953 2.11021 11.4881 1.30247 9.31085 1.34117C7.13363 1.37988 5.05639 2.262 3.51662 3.80178C1.97685 5.34155 1.09472 7.41878 1.05602 9.59601C1.01731 11.7732 1.82506 13.8805 3.30913 15.474C4.7932 17.0676 6.83777 18.0229 9.01224 18.139C11.1867 18.2551 13.3214 17.5227 14.9666 16.0962L18.0444 19.174L18.8889 18.3296ZM2.30552 9.77401C2.30442 8.35305 2.72478 6.96368 3.51343 5.78165C4.30208 4.59963 5.42357 3.67806 6.73606 3.13352C8.04855 2.58897 9.49305 2.44593 10.8868 2.72247C12.2806 2.99901 13.5611 3.68272 14.5663 4.68711C15.5714 5.69149 16.2561 6.97143 16.5338 8.36501C16.8114 9.75859 16.6694 11.2032 16.1259 12.5161C15.5824 13.829 14.6617 14.9512 13.4803 15.7408C12.2989 16.5304 10.9098 16.9518 9.48885 16.9518C7.58513 16.9503 5.75971 16.1938 4.41306 14.8482C3.0664 13.5026 2.30846 11.6777 2.30552 9.77401Z" fill="#7A7B7C"/>
</svg>
