<svg width="22" height="22" viewBox="0 0 22 22" fill="none" xmlns="http://www.w3.org/2000/svg">
<g id="vuesax/linear/note">
<g id="note">
<path id="Vector" d="M18.3327 7.56053V16.498C18.3327 19.248 16.6918 20.1647 14.666 20.1647H7.33268C5.30685 20.1647 3.66602 19.248 3.66602 16.498V7.56053C3.66602 4.58136 5.30685 3.89386 7.33268 3.89386C7.33268 4.46219 7.56182 4.97552 7.93766 5.35136C8.31349 5.72719 8.82685 5.95636 9.39518 5.95636H12.6035C13.7402 5.95636 14.666 5.03053 14.666 3.89386C16.6918 3.89386 18.3327 4.58136 18.3327 7.56053Z" stroke="#222325" stroke-width="1.5" stroke-linecap="round" stroke-linejoin="round"/>
<path id="Vector_2" d="M14.6673 3.89337C14.6673 5.03004 13.7415 5.95587 12.6048 5.95587H9.39648C8.82815 5.95587 8.31479 5.7267 7.93896 5.35087C7.56313 4.97503 7.33398 4.4617 7.33398 3.89337C7.33398 2.7567 8.25982 1.83087 9.39648 1.83087H12.6048C13.1732 1.83087 13.6865 2.06004 14.0623 2.43587C14.4382 2.81171 14.6673 3.32504 14.6673 3.89337Z" stroke="#222325" stroke-width="1.5" stroke-linecap="round" stroke-linejoin="round"/>
<path id="Vector_3" d="M7.33398 11.918H11.0007" stroke="#222325" stroke-width="1.5" stroke-linecap="round" stroke-linejoin="round"/>
<path id="Vector_4" d="M7.33398 15.5797H14.6673" stroke="#222325" stroke-width="1.5" stroke-linecap="round" stroke-linejoin="round"/>
</g>
</g>
</svg>
