<svg class="svg-icon" style="width: 1em;height: 1em;vertical-align: middle;fill: currentColor;overflow: hidden;" viewBox="0 0 1024 1024" version="1.1" xmlns="http://www.w3.org/2000/svg"><path d="M510.5 925.625c-7.125 0-14.15625-2.34375-19.875-6.65625L146.09375 737.65625c-10.78125-5.71875-17.53125-16.875-17.53125-29.0625l0.09375-408.28125v-0.09375-0.09375-0.09375-0.09375-0.09375c0.09375-5.625 1.6875-10.96875 4.3125-15.65625v-0.09375-0.09375c1.125-1.875 2.4375-3.65625 3.84375-5.34375 2.34375-2.625 5.15625-4.78125 8.34375-6.5625l1.6875-0.84375L497.65625 100.25c9.09375-4.40625 19.59375-4.40625 28.6875 0l350.90625 170.34375c1.59375 0.75 3.09375 1.59375 4.5 2.53125 3.75 2.53125 6.84375 5.71875 9.1875 9.375 2.34375 3.65625 4.03125 7.78125 4.78125 12.1875 0.28125 1.875 0.46875 3.75 0.46875 5.71875v408.28125c0 12.1875-6.84375 23.4375-17.625 29.0625L531.03125 919.0625c-0.84375 0.65625-1.78125 1.3125-2.71875 1.875-5.15625 3.09375-11.0625 4.6875-16.96875 4.6875H510.5zM194.1875 688.8125l284.4375 149.71875 0.5625-338.15625-284.90625-146.25-0.09375 334.6875z m350.625-197.34375l-0.5625 346.6875L830.75 688.71875V352.71875l-285.9375 138.75zM236.46875 300.3125l275.625 134.15625 276.375-134.15625-276.375-134.15625-275.625 134.15625z"  /><path d="M387.875 188.75l357.65625 173.8125-1.875 205.21875L638.5625 618.3125l1.875-208.875L291.5 231.6875l96.375-42.9375z"  /></svg>