<svg width="44" height="44" viewBox="0 0 44 44" fill="none" xmlns="http://www.w3.org/2000/svg">
<rect x="0.5" y="0.5" width="43" height="43" rx="3.5" fill="white"/>
<rect x="0.5" y="0.5" width="43" height="43" rx="3.5" stroke="#EFF3FA"/>
<path fill-rule="evenodd" clip-rule="evenodd" d="M24.4998 16.1654C24.4998 14.3244 25.9922 12.832 27.8332 12.832C29.6741 12.832 31.1665 14.3244 31.1665 16.1654C31.1665 18.0063 29.6741 19.4987 27.8332 19.4987C26.6958 19.4987 25.6914 18.929 25.0899 18.0595L19.3075 20.8782C19.4321 21.228 19.5 21.6048 19.5 21.9974C19.5 22.3639 19.4408 22.7167 19.3315 23.0465L25.0821 25.9506C25.6827 25.0746 26.6908 24.5 27.8332 24.5C29.6741 24.5 31.1665 25.9924 31.1665 27.8333C31.1665 29.6743 29.6741 31.1667 27.8332 31.1667C25.9922 31.1667 24.4998 29.6743 24.4998 27.8333C24.4998 27.7313 24.5044 27.6303 24.5134 27.5306L18.4203 24.4535C17.8269 24.9982 17.0356 25.3307 16.1667 25.3307C14.3257 25.3307 12.8333 23.8383 12.8333 21.9974C12.8333 20.1564 14.3257 18.6641 16.1667 18.6641C17.0061 18.6641 17.773 18.9743 18.359 19.4864L24.515 16.4856C24.505 16.3802 24.4998 16.2734 24.4998 16.1654ZM29.5 16.1667C29.5 15.2462 28.7538 14.5 27.8333 14.5C26.9129 14.5 26.1667 15.2462 26.1667 16.1667C26.1667 17.0871 26.9129 17.8333 27.8333 17.8333C28.7538 17.8333 29.5 17.0871 29.5 16.1667ZM29.5 27.8346C29.5 26.9142 28.7538 26.168 27.8333 26.168C26.9129 26.168 26.1667 26.9142 26.1667 27.8346C26.1667 28.7551 26.9129 29.5013 27.8333 29.5013C28.7538 29.5013 29.5 28.7551 29.5 27.8346ZM16.1668 20.332C17.0873 20.332 17.8335 21.0782 17.8335 21.9987C17.8335 22.9192 17.0873 23.6654 16.1668 23.6654C15.2464 23.6654 14.5002 22.9192 14.5002 21.9987C14.5002 21.0782 15.2464 20.332 16.1668 20.332Z" fill="#848FAC"/>
</svg>
