<svg width="24" height="24" viewBox="0 0 24 24" fill="none" xmlns="http://www.w3.org/2000/svg">
<g id="united-states 1" clip-path="url(#clip0_23_3225)">
<g id="Clip path group">
<mask id="mask0_23_3225" style="mask-type:luminance" maskUnits="userSpaceOnUse" x="0" y="0" width="24" height="24">
<g id="clip0">
<path id="Vector" d="M0 0H24V24H0V0Z" fill="white"/>
</g>
</mask>
<g mask="url(#mask0_23_3225)">
<g id="Group">
<path id="Vector_2" d="M12 24C18.6274 24 24 18.6274 24 12C24 5.37258 18.6274 0 12 0C5.37258 0 0 5.37258 0 12C0 18.6274 5.37258 24 12 24Z" fill="#F0F0F0"/>
<g id="Group_2">
<path id="Vector_3" d="M11.4783 11.9997H23.9999C23.9999 10.9167 23.8556 9.86739 23.5865 8.86932H11.4783V11.9997Z" fill="#D80027"/>
<path id="Vector_4" d="M11.4783 5.73855H22.2387C21.5041 4.53986 20.5649 3.48034 19.4697 2.60809H11.4783V5.73855Z" fill="#D80027"/>
<path id="Vector_5" d="M11.9998 23.9998C14.824 23.9998 17.4198 23.0237 19.4696 21.3912H4.53003C6.57988 23.0237 9.1757 23.9998 11.9998 23.9998Z" fill="#D80027"/>
<path id="Vector_6" d="M1.76122 18.2597H22.2387C22.8284 17.2974 23.2857 16.2455 23.5865 15.1292H0.41333C0.714125 16.2455 1.17149 17.2974 1.76122 18.2597Z" fill="#D80027"/>
</g>
<path id="Vector_7" d="M5.55863 1.87397H6.65217L5.63499 2.61295L6.02353 3.80869L5.00639 3.0697L3.98925 3.80869L4.32487 2.7757C3.42928 3.52172 2.64431 4.39575 1.99744 5.36963H2.34783L1.70035 5.84001C1.59947 6.0083 1.50272 6.17925 1.41 6.35273L1.71919 7.30433L1.14235 6.88527C0.998953 7.189 0.8678 7.49967 0.749907 7.8168L1.09055 8.86527H2.34783L1.33064 9.60427L1.71919 10.8L0.702047 10.061L0.0927653 10.5037C0.0317813 10.9939 0 11.4933 0 12H12C12 5.37263 12 4.59131 12 0C9.62947 0 7.4196 0.687653 5.55863 1.87397ZM6.02353 10.8L5.00639 10.061L3.98925 10.8L4.3778 9.60427L3.36061 8.86527H4.61789L5.00639 7.66953L5.39489 8.86527H6.65217L5.63499 9.60427L6.02353 10.8ZM5.63499 6.10861L6.02353 7.30433L5.00639 6.56536L3.98925 7.30433L4.3778 6.10861L3.36061 5.36963H4.61789L5.00639 4.17389L5.39489 5.36963H6.65217L5.63499 6.10861ZM10.3279 10.8L9.31073 10.061L8.2936 10.8L8.68213 9.60427L7.66493 8.86527H8.92227L9.31073 7.66953L9.69927 8.86527H10.9565L9.93933 9.60427L10.3279 10.8ZM9.93933 6.10861L10.3279 7.30433L9.31073 6.56536L8.2936 7.30433L8.68213 6.10861L7.66493 5.36963H8.92227L9.31073 4.17389L9.69927 5.36963H10.9565L9.93933 6.10861ZM9.93933 2.61295L10.3279 3.80869L9.31073 3.0697L8.2936 3.80869L8.68213 2.61295L7.66493 1.87397H8.92227L9.31073 0.678233L9.69927 1.87397H10.9565L9.93933 2.61295Z" fill="#0052B4"/>
</g>
</g>
</g>
</g>
<defs>
<clipPath id="clip0_23_3225">
<rect width="24" height="24" fill="white"/>
</clipPath>
</defs>
</svg>
