<svg width="53" height="32" viewBox="0 0 53 32" fill="none" xmlns="http://www.w3.org/2000/svg">
<rect x="1.25" y="0.5" width="51" height="31" rx="7.5" stroke="#C5D0E6"/>
<path fill-rule="evenodd" clip-rule="evenodd" d="M23.7535 20.1575V20.7189V21.2804H23.5077V21.144C23.4298 21.2451 23.3115 21.3086 23.1507 21.3086C22.8337 21.3086 22.5853 21.062 22.5853 20.7189C22.5853 20.3761 22.8337 20.1293 23.1507 20.1293C23.3115 20.1293 23.4298 20.1927 23.5077 20.2938V20.1575H23.7535ZM23.1813 20.3591C22.9686 20.3591 22.8384 20.5213 22.8384 20.7186C22.8384 20.916 22.9686 21.0781 23.1813 21.0781C23.3846 21.0781 23.5218 20.923 23.5218 20.7186C23.5218 20.5143 23.3846 20.3591 23.1813 20.3591ZM32.059 20.7186C32.059 20.5213 32.1892 20.3591 32.402 20.3591C32.6055 20.3591 32.7425 20.5143 32.7425 20.7186C32.7425 20.923 32.6055 21.0781 32.402 21.0781C32.1892 21.0781 32.059 20.916 32.059 20.7186ZM32.9742 19.7066V20.7189V21.2804H32.7281V21.144C32.6502 21.2451 32.5319 21.3086 32.3711 21.3086C32.0541 21.3086 31.8057 21.062 31.8057 20.7189C31.8057 20.3761 32.0541 20.1293 32.3711 20.1293C32.5319 20.1293 32.6502 20.1927 32.7281 20.2938V19.7066H32.9742ZM26.8043 20.3487C26.9627 20.3487 27.0644 20.4474 27.0904 20.6211H26.5039C26.5301 20.459 26.6292 20.3487 26.8043 20.3487ZM26.2462 20.7189C26.2462 20.3688 26.4779 20.1293 26.8092 20.1293C27.1259 20.1293 27.3435 20.3688 27.346 20.7189C27.346 20.7517 27.3435 20.7824 27.3411 20.8128H26.5017C26.5372 21.015 26.6814 21.0878 26.8398 21.0878C26.9532 21.0878 27.0739 21.0454 27.1687 20.9703L27.2891 21.1513C27.1519 21.2664 26.996 21.3086 26.8257 21.3086C26.4874 21.3086 26.2462 21.076 26.2462 20.7189ZM29.7769 20.7186C29.7769 20.5213 29.9071 20.3591 30.1199 20.3591C30.3231 20.3591 30.4604 20.5143 30.4604 20.7186C30.4604 20.923 30.3231 21.0781 30.1199 21.0781C29.9071 21.0781 29.7769 20.916 29.7769 20.7186ZM30.6921 20.1575V20.7189V21.2804H30.4463V21.144C30.3681 21.2451 30.2501 21.3086 30.0893 21.3086C29.7723 21.3086 29.5238 21.062 29.5238 20.7189C29.5238 20.3761 29.7723 20.1293 30.0893 20.1293C30.2501 20.1293 30.3681 20.1927 30.4463 20.2938V20.1575H30.6921ZM28.3889 20.7189C28.3889 21.0596 28.6276 21.3086 28.9919 21.3086C29.1622 21.3086 29.2756 21.2709 29.3985 21.1747L29.2805 20.9773C29.1882 21.0432 29.0913 21.0784 28.9846 21.0784C28.7884 21.076 28.6441 20.9351 28.6441 20.7189C28.6441 20.5027 28.7884 20.3618 28.9846 20.3594C29.0913 20.3594 29.1882 20.3947 29.2805 20.4605L29.3985 20.2632C29.2756 20.1669 29.1622 20.1293 28.9919 20.1293C28.6276 20.1293 28.3889 20.3783 28.3889 20.7189ZM31.2597 20.2947C31.3235 20.196 31.4158 20.1302 31.5577 20.1302C31.6075 20.1302 31.6784 20.1396 31.7328 20.1608L31.657 20.391C31.605 20.3697 31.5531 20.3627 31.5033 20.3627C31.3425 20.3627 31.2621 20.466 31.2621 20.6518V21.2812H31.0161V20.1584H31.2597V20.2947ZM24.9691 20.2468C24.8508 20.1693 24.6879 20.1293 24.5081 20.1293C24.2218 20.1293 24.0374 20.2656 24.0374 20.4888C24.0374 20.6719 24.1747 20.7848 24.4275 20.82L24.5436 20.8364C24.6784 20.8553 24.742 20.8905 24.742 20.9539C24.742 21.0408 24.6521 21.0903 24.4843 21.0903C24.3141 21.0903 24.1912 21.0362 24.1083 20.9728L23.9925 21.1629C24.1273 21.2615 24.2975 21.3086 24.4819 21.3086C24.8083 21.3086 24.9975 21.1559 24.9975 20.9421C24.9975 20.7447 24.8486 20.6415 24.6026 20.6063L24.4868 20.5896C24.3804 20.5756 24.2951 20.5546 24.2951 20.4794C24.2951 20.3971 24.3755 20.3479 24.5103 20.3479C24.6546 20.3479 24.7942 20.4019 24.8627 20.4441L24.9691 20.2468ZM27.8427 20.2947C27.9063 20.196 27.9986 20.1302 28.1404 20.1302C28.1902 20.1302 28.2611 20.1396 28.3155 20.1608L28.2398 20.391C28.1878 20.3697 28.1358 20.3627 28.086 20.3627C27.9252 20.3627 27.8448 20.466 27.8448 20.6518V21.2812H27.5991V20.1584H27.8427V20.2947ZM26.0429 20.1575H25.6409V19.8168H25.3924V20.1575H25.1631V20.3807H25.3924V20.8929C25.3924 21.1534 25.4942 21.3086 25.7849 21.3086C25.8915 21.3086 26.0144 21.2758 26.0924 21.2217L26.0215 21.0126C25.9481 21.0548 25.8677 21.076 25.8038 21.076C25.681 21.076 25.6409 21.0007 25.6409 20.8881V20.3807H26.0429V20.1575ZM22.3679 20.5765V21.2812H22.1194V20.6564C22.1194 20.466 22.039 20.3603 21.8712 20.3603C21.708 20.3603 21.5946 20.4638 21.5946 20.6588V21.2812H21.3461V20.6564C21.3461 20.466 21.2635 20.3603 21.1003 20.3603C20.9322 20.3603 20.8234 20.4638 20.8234 20.6588V21.2812H20.5752V20.1584H20.8212V20.2969C20.9135 20.1654 21.0316 20.1302 21.1523 20.1302C21.325 20.1302 21.4479 20.2054 21.5258 20.3299C21.63 20.1724 21.7789 20.1277 21.9232 20.1302C22.1976 20.1326 22.3679 20.3111 22.3679 20.5765Z" fill="#231F20"/>
<path d="M28.6128 18.2468H24.8877V11.5967H28.6128V18.2468Z" fill="#FF5F00"/>
<path d="M25.1238 14.9221C25.1238 13.5731 25.7596 12.3714 26.7498 11.597C26.0257 11.0308 25.1119 10.6928 24.1188 10.6928C21.7677 10.6928 19.8618 12.5863 19.8618 14.9221C19.8618 17.2579 21.7677 19.1514 24.1188 19.1514C25.1119 19.1514 26.0257 18.8134 26.7498 18.2471C25.7596 17.4727 25.1238 16.2711 25.1238 14.9221Z" fill="#EB001B"/>
<path d="M33.6382 14.9221C33.6382 17.2579 31.7324 19.1514 29.3813 19.1514C28.3881 19.1514 27.4743 18.8134 26.75 18.2471C27.7404 17.4727 28.3762 16.2711 28.3762 14.9221C28.3762 13.5731 27.7404 12.3714 26.75 11.597C27.4743 11.0308 28.3881 10.6928 29.3813 10.6928C31.7324 10.6928 33.6382 12.5863 33.6382 14.9221Z" fill="#F79E1B"/>
</svg>
