<svg width="69" height="25" viewBox="0 0 69 25" fill="none" xmlns="http://www.w3.org/2000/svg">
<path fill-rule="evenodd" clip-rule="evenodd" d="M9.95223 3.82104H4.92761C4.58371 3.82104 4.29132 4.07301 4.23767 4.41541L2.20547 17.4082C2.16505 17.6644 2.362 17.8956 2.61984 17.8956H5.01868C5.36251 17.8956 5.6549 17.6438 5.70855 17.3008L6.25663 13.7964C6.30957 13.4533 6.60268 13.2014 6.94579 13.2014H8.53644C11.8463 13.2014 13.7565 11.5863 14.2554 8.38569C14.4802 6.98541 14.265 5.88523 13.6147 5.11473C12.9006 4.26856 11.634 3.82104 9.95223 3.82104ZM10.5319 8.56649C10.2571 10.3846 8.87955 10.3846 7.54752 10.3846H6.78932L7.32123 6.98917C7.35286 6.78392 7.52914 6.63278 7.73489 6.63278H8.08237C8.98973 6.63278 9.84571 6.63278 10.288 7.15431C10.5518 7.46552 10.6326 7.92781 10.5319 8.56649Z" fill="#283B82"/>
<path fill-rule="evenodd" clip-rule="evenodd" d="M24.9717 8.50801H22.5657C22.3607 8.50801 22.1837 8.65916 22.1519 8.8644L22.0456 9.54304L21.8772 9.29704C21.3563 8.53465 20.1947 8.27984 19.0354 8.27984C16.3765 8.27984 14.1055 10.3106 13.6632 13.1593C13.4333 14.5803 13.7602 15.939 14.5596 16.8866C15.2928 17.7578 16.3419 18.1209 17.5903 18.1209C19.7327 18.1209 20.9207 16.7318 20.9207 16.7318L20.8134 17.406C20.7729 17.6638 20.9699 17.895 21.2264 17.895H23.3936C23.7382 17.895 24.0292 17.643 24.0836 17.3001L25.3839 8.9955C25.4252 8.73988 25.229 8.50801 24.9717 8.50801ZM21.6179 13.2304C21.3858 14.6165 20.2947 15.5472 18.9032 15.5472C18.2045 15.5472 17.6461 15.3211 17.2875 14.8929C16.9319 14.4676 16.7967 13.8623 16.9099 13.1881C17.1266 11.8138 18.2361 10.8529 19.6062 10.8529C20.2896 10.8529 20.845 11.0818 21.2109 11.5137C21.5776 11.9501 21.7229 12.5591 21.6179 13.2304Z" fill="#283B82"/>
<path d="M35.3686 8.50802H37.7865C38.1253 8.50802 38.3229 8.89104 38.1303 9.17116L30.0883 20.8771C29.9583 21.0667 29.7437 21.1794 29.5146 21.1794H27.0996C26.7593 21.1794 26.5609 20.7932 26.7579 20.5125L29.2618 16.9481L26.5985 9.06663C26.5067 8.7925 26.7072 8.50802 26.996 8.50802H29.372C29.6806 8.50802 29.9531 8.71249 30.042 9.01036L31.4555 13.7705L34.7904 8.81701C34.9212 8.6236 35.1379 8.50802 35.3686 8.50802Z" fill="#283B82"/>
<path d="M61.5853 17.4084L63.6477 4.1777C63.6793 3.97257 63.8556 3.82124 64.0605 3.82062H66.3823C66.6387 3.82062 66.8356 4.05249 66.7951 4.30894L64.7615 17.3009C64.7086 17.644 64.4161 17.8958 64.0715 17.8958H61.9983C61.7418 17.8958 61.545 17.6646 61.5853 17.4084Z" fill="#469BDB"/>
<path fill-rule="evenodd" clip-rule="evenodd" d="M45.7921 3.82123H40.7667C40.4236 3.82123 40.1311 4.0732 40.0775 4.4156L38.0453 17.4084C38.005 17.6646 38.2018 17.8958 38.4583 17.8958H41.0371C41.2765 17.8958 41.4816 17.7196 41.519 17.4795L42.0957 13.7966C42.1486 13.4535 42.4419 13.2016 42.7849 13.2016H44.3749C47.6854 13.2016 49.5949 11.5865 50.0945 8.38588C50.3202 6.9856 50.1034 5.88542 49.4531 5.11492C48.7397 4.26875 47.4738 3.82123 45.7921 3.82123ZM46.3718 8.56668C46.0977 10.3848 44.7202 10.3848 43.3874 10.3848H42.63L43.1626 6.98936C43.1942 6.78411 43.369 6.63297 43.5755 6.63297H43.923C44.8297 6.63297 45.6863 6.63297 46.1285 7.1545C46.3924 7.46571 46.4724 7.928 46.3718 8.56668Z" fill="#469BDB"/>
<path fill-rule="evenodd" clip-rule="evenodd" d="M60.811 8.5082H58.4063C58.1998 8.5082 58.0242 8.65935 57.9934 8.86459L57.8868 9.54323L57.7179 9.29723C57.197 8.53484 56.0361 8.28003 54.8768 8.28003C52.2178 8.28003 49.9477 10.3108 49.5053 13.1594C49.2761 14.5804 49.6015 15.9392 50.4009 16.8868C51.1357 17.758 52.1833 18.1211 53.4315 18.1211C55.5739 18.1211 56.762 16.732 56.762 16.732L56.6547 17.4062C56.6143 17.664 56.8112 17.8952 57.0692 17.8952H59.2358C59.5789 17.8952 59.8713 17.6432 59.925 17.3003L61.2261 8.99569C61.2657 8.74007 61.0689 8.5082 60.811 8.5082ZM57.457 13.2306C57.2263 14.6167 56.1338 15.5474 54.7423 15.5474C54.045 15.5474 53.4852 15.3213 53.1266 14.8931C52.7711 14.4678 52.6373 13.8625 52.7491 13.1883C52.9672 11.814 54.0752 10.8531 55.4455 10.8531C56.1287 10.8531 56.6841 11.082 57.05 11.5139C57.418 11.9503 57.5635 12.5593 57.457 13.2306Z" fill="#469BDB"/>
</svg>
