<svg width="25" height="25" viewBox="0 0 25 25" fill="none" xmlns="http://www.w3.org/2000/svg">
<path d="M9.20605 20.8898L9.51801 18.9083L8.82311 18.8922H5.50488L7.81088 4.27067C7.81804 4.22653 7.8413 4.18537 7.8753 4.15614C7.9093 4.12691 7.95284 4.11081 7.99817 4.11081H13.5932C15.4506 4.11081 16.7324 4.49733 17.4017 5.26023C17.7154 5.61812 17.9153 5.99211 18.0119 6.40368C18.1133 6.83553 18.1151 7.35149 18.0161 7.98078L18.0089 8.02671V8.42993L18.3227 8.60768C18.5869 8.74785 18.7969 8.9083 18.9579 9.09202C19.2263 9.39801 19.3999 9.78692 19.4733 10.248C19.549 10.7222 19.524 11.2865 19.3999 11.9253C19.2567 12.6602 19.0253 13.3002 18.7128 13.8239C18.4253 14.3065 18.059 14.7067 17.6242 15.0169C17.209 15.3115 16.7157 15.5352 16.158 15.6784C15.6176 15.8191 15.0015 15.8901 14.3256 15.8901H13.8902C13.5788 15.8901 13.2764 16.0022 13.039 16.2033C12.801 16.4085 12.6436 16.6888 12.5952 16.9954L12.5624 17.1737L12.0113 20.6661L11.9862 20.7944C11.9797 20.8349 11.9683 20.8552 11.9516 20.8689C11.9367 20.8815 11.9153 20.8898 11.8944 20.8898H9.20605Z" fill="#253B80"/>
<path d="M18.6199 8.07318C18.6032 8.17995 18.5842 8.28911 18.5627 8.40125C17.8248 12.1895 15.3005 13.4982 12.0765 13.4982H10.435C10.0408 13.4982 9.70852 13.7845 9.64708 14.1734L8.80664 19.5035L8.56865 21.0144C8.52868 21.2697 8.72552 21.5 8.9832 21.5H11.8946C12.2394 21.5 12.5323 21.2494 12.5865 20.9094L12.6152 20.7615L13.1633 17.2828L13.1985 17.092C13.2522 16.7508 13.5457 16.5003 13.8904 16.5003H14.3259C17.1466 16.5003 19.3548 15.355 20.0002 12.041C20.2698 10.6565 20.1302 9.50056 19.4168 8.68756C19.2009 8.4424 18.9331 8.239 18.6199 8.07318Z" fill="#179BD7"/>
<path d="M17.848 7.76543C17.7353 7.73263 17.6189 7.7028 17.4996 7.67596C17.3797 7.64972 17.2569 7.62645 17.1304 7.60617C16.6878 7.53459 16.2029 7.5006 15.6834 7.5006H11.298C11.1901 7.5006 11.0875 7.52505 10.9956 7.56919C10.7934 7.66642 10.6431 7.85789 10.6067 8.0923L9.67381 14.001L9.64697 14.1734C9.70841 13.7845 10.0406 13.4982 10.4349 13.4982H12.0764C15.3004 13.4982 17.8247 12.1889 18.5626 8.40128C18.5846 8.28914 18.6031 8.17999 18.6198 8.07322C18.4331 7.9742 18.2309 7.8895 18.0132 7.81733C17.9595 7.79943 17.9041 7.78213 17.848 7.76543Z" fill="#222D65"/>
<path d="M10.9955 7.56979C11.088 7.52565 11.19 7.50119 11.298 7.50119H15.6833C16.2028 7.50119 16.6877 7.53519 17.1303 7.60677C17.2568 7.62705 17.3797 7.65031 17.4996 7.67656C17.6189 7.7034 17.7352 7.73322 17.8479 7.76603C17.904 7.78273 17.9594 7.80003 18.0137 7.81733C18.2314 7.8895 18.4337 7.9748 18.6203 8.07322C18.8399 6.67328 18.6186 5.7201 17.8616 4.85699C17.0271 3.9068 15.521 3.5 13.5938 3.5H7.99882C7.60514 3.5 7.26932 3.78631 7.20848 4.17581L4.87803 18.9477C4.8321 19.2399 5.05757 19.5036 5.35223 19.5036H8.80645L9.67373 14.001L10.6066 8.09231C10.643 7.85789 10.7933 7.66642 10.9955 7.56979Z" fill="#253B80"/>
</svg>
